<!--
Filename: c:\Users\ganap\Desktop\assets.svg
Path: c:\Users\ganap\Desktop
Created Date: Monday, November 14th 2022, 12:58:27 am
Author: Hari Prasad

Copyright (c) 2022 KBX Digital
-->

<svg width="524" height="524" viewBox="0 0 524 524" fill="none" xmlns="http://www.w3.org/2000/svg">
<rect width="524" height="524" fill="white"/>
<path d="M164.223 273.976H178.313V348.758H158.94L164.223 273.976Z" fill="url(#paint0_linear_37_2)"/>
<path d="M129 273.976H146.612V348.758H129V273.976Z" fill="url(#paint1_linear_37_2)"/>
<path d="M157.179 273.976H178.313L150.134 348.758H129L157.179 273.976Z" fill="url(#paint2_linear_37_2)"/>
<path d="M188.88 273.976H210.014L181.835 348.758H158.94L188.88 273.976Z" fill="url(#paint3_linear_37_2)"/>
<path d="M236.211 297.346H249.073V347.2H236.211V341.317C232.355 346.17 226.938 348.596 219.958 348.596C213.311 348.596 207.594 346.07 202.808 341.018C198.088 335.9 195.729 329.651 195.729 322.273C195.729 314.894 198.088 308.679 202.808 303.627C207.594 298.509 213.311 295.95 219.958 295.95C226.938 295.95 232.355 298.376 236.211 303.228V297.346ZM212.48 332.443C215.072 335.036 218.363 336.332 222.351 336.332C226.339 336.332 229.63 335.036 232.222 332.443C234.881 329.784 236.211 326.394 236.211 322.273C236.211 318.152 234.881 314.795 232.222 312.202C229.63 309.543 226.339 308.214 222.351 308.214C218.363 308.214 215.072 309.543 212.48 312.202C209.887 314.795 208.591 318.152 208.591 322.273C208.591 326.394 209.887 329.784 212.48 332.443Z" fill="#333333"/>
<path d="M260.737 347.2V274.412H273.599V347.2H260.737Z" fill="#333333"/>
<path d="M285.372 347.2V274.412H298.234V347.2H285.372Z" fill="#333333"/>
<path d="M320.875 327.558C322.604 333.806 327.29 336.93 334.934 336.93C339.853 336.93 343.576 335.268 346.102 331.945L356.472 337.927C351.553 345.04 344.307 348.596 334.735 348.596C326.492 348.596 319.878 346.103 314.893 341.118C309.907 336.133 307.415 329.851 307.415 322.273C307.415 314.761 309.874 308.513 314.793 303.528C319.712 298.476 326.027 295.95 333.738 295.95C341.05 295.95 347.066 298.476 351.785 303.528C356.571 308.58 358.964 314.828 358.964 322.273C358.964 323.935 358.798 325.696 358.466 327.558H320.875ZM320.676 317.587H346.102C345.371 314.196 343.842 311.67 341.515 310.009C339.255 308.347 336.663 307.516 333.738 307.516C330.281 307.516 327.423 308.413 325.163 310.208C322.903 311.936 321.407 314.396 320.676 317.587Z" fill="#333333"/>
<path d="M395 309.71H383.733V330.449C383.733 332.177 384.165 333.44 385.029 334.238C385.893 335.036 387.156 335.501 388.818 335.634C390.48 335.7 392.54 335.667 395 335.534V347.2C386.159 348.197 379.911 347.366 376.255 344.708C372.665 342.049 370.87 337.296 370.87 330.449V309.71H362.196V297.346H370.87V287.275L383.733 283.386V297.346H395V309.71Z" fill="#333333"/>
<path d="M261.716 190.705H230.766V207.971H260.831V221.7H230.766V249.782H215.513V176.976H261.716V190.705Z" fill="#333333"/>
<path d="M281.452 191.537C279.094 191.537 277.03 190.74 275.262 189.145C273.567 187.481 272.72 185.54 272.72 183.321C272.72 181.102 273.567 179.16 275.262 177.496C277.03 175.832 279.094 175 281.452 175C283.884 175 285.947 175.832 287.642 177.496C289.41 179.16 290.295 181.102 290.295 183.321C290.295 185.54 289.41 187.481 287.642 189.145C285.947 190.74 283.884 191.537 281.452 191.537ZM274.378 249.782V197.778H288.637V249.782H274.378Z" fill="#333333"/>
<path d="M275.262 189.145C277.03 190.74 279.094 191.537 281.452 191.537C283.884 191.537 285.947 190.74 287.642 189.145C289.41 187.481 290.295 185.54 290.295 183.321C290.295 181.102 289.41 179.16 287.642 177.496C285.947 175.832 283.884 175 281.452 175C279.094 175 277.03 175.832 275.262 177.496C273.567 179.16 272.72 181.102 272.72 183.321C272.72 185.54 273.567 187.481 275.262 189.145Z" fill="#333333"/>
<defs>
<linearGradient id="paint0_linear_37_2" x1="173.189" y1="273.976" x2="173.189" y2="348.758" gradientUnits="userSpaceOnUse">
<stop stop-color="#095B6D"/>
<stop offset="1" stop-color="#003A47"/>
</linearGradient>
<linearGradient id="paint1_linear_37_2" x1="169.507" y1="273.976" x2="169.507" y2="348.758" gradientUnits="userSpaceOnUse">
<stop stop-color="#095B6D"/>
<stop offset="1" stop-color="#003A47"/>
</linearGradient>
<linearGradient id="paint2_linear_37_2" x1="169.507" y1="273.976" x2="169.507" y2="348.758" gradientUnits="userSpaceOnUse">
<stop stop-color="#095B6D"/>
<stop offset="1" stop-color="#0491AF"/>
</linearGradient>
<linearGradient id="paint3_linear_37_2" x1="185.357" y1="273.976" x2="185.357" y2="348.758" gradientUnits="userSpaceOnUse">
<stop stop-color="#095B6D"/>
<stop offset="1" stop-color="#0491AF"/>
</linearGradient>
</defs>
</svg>
