<svg width="95" height="160" viewBox="0 0 95 160" fill="none" xmlns="http://www.w3.org/2000/svg">
<g clip-path="url(#clip0_32_418)">
<path d="M59.1376 3.86898L57.345 2.83398L56.31 4.62666L58.1026 5.66166L59.1376 3.86898Z" fill="white"/>
<path d="M52.8776 14.7116L51.085 13.6766L50.05 15.4693L51.8426 16.5043L52.8776 14.7116Z" fill="white"/>
<path d="M46.6226 25.5456L44.83 24.5106L43.795 26.3033L45.5876 27.3383L46.6226 25.5456Z" fill="white"/>
<path d="M40.3677 36.3796L38.575 35.3446L37.54 37.1372L39.3327 38.1722L40.3677 36.3796Z" fill="white"/>
<path d="M34.1126 47.2136L32.32 46.1786L31.285 47.9712L33.0777 49.0062L34.1126 47.2136Z" fill="white"/>
<path d="M27.8526 58.0562L26.06 57.0212L25.025 58.8139L26.8176 59.8489L27.8526 58.0562Z" fill="white"/>
<path d="M21.5976 68.8902L19.805 67.8552L18.77 69.6478L20.5626 70.6828L21.5976 68.8902Z" fill="white"/>
<path d="M15.3426 79.7241L13.55 78.6891L12.515 80.4818L14.3076 81.5168L15.3426 79.7241Z" fill="white"/>
<path d="M9.08265 90.5668L7.28998 89.5318L6.25498 91.3244L8.04765 92.3594L9.08265 90.5668Z" fill="white"/>
<path d="M2.82765 101.401L1.03497 100.366L-2.67029e-05 102.158L1.79265 103.193L2.82765 101.401Z" fill="white"/>
<path d="M75.2047 -1.29999L73.412 -2.33499L72.377 -0.542319L74.1697 0.492681L75.2047 -1.29999Z" fill="white"/>
<path d="M68.9497 9.53399L67.157 8.49899L66.122 10.2917L67.9147 11.3267L68.9497 9.53399Z" fill="white"/>
<path d="M62.6897 20.3766L60.897 19.3416L59.862 21.1343L61.6547 22.1693L62.6897 20.3766Z" fill="white"/>
<path d="M56.4347 31.2106L54.642 30.1756L53.607 31.9683L55.3997 33.0033L56.4347 31.2106Z" fill="white"/>
<path d="M50.1797 42.0446L48.387 41.0096L47.352 42.8023L49.1447 43.8373L50.1797 42.0446Z" fill="white"/>
<path d="M43.9247 52.8785L42.132 51.8435L41.0971 53.6362L42.8897 54.6712L43.9247 52.8785Z" fill="white"/>
<path d="M37.6647 63.7212L35.872 62.6862L34.837 64.4789L36.6297 65.5139L37.6647 63.7212Z" fill="white"/>
<path d="M31.4097 74.5552L29.6171 73.5202L28.582 75.3129L30.3747 76.3479L31.4097 74.5552Z" fill="white"/>
<path d="M25.1547 85.3891L23.362 84.3541L22.327 86.1468L24.1197 87.1818L25.1547 85.3891Z" fill="white"/>
<path d="M18.8947 96.2318L17.102 95.1968L16.067 96.9894L17.8597 98.0244L18.8947 96.2318Z" fill="white"/>
<path d="M12.6397 107.066L10.847 106.031L9.81205 107.823L11.6047 108.858L12.6397 107.066Z" fill="white"/>
<path d="M85.0168 4.36499L83.2241 3.32999L82.1891 5.12266L83.9818 6.15766L85.0168 4.36499Z" fill="white"/>
<path d="M78.7618 15.199L76.9691 14.164L75.9341 15.9566L77.7268 16.9916L78.7618 15.199Z" fill="white"/>
<path d="M72.5018 26.0416L70.7091 25.0066L69.6741 26.7993L71.4668 27.8343L72.5018 26.0416Z" fill="white"/>
<path d="M66.2468 36.8756L64.4541 35.8406L63.4191 37.6333L65.2118 38.6683L66.2468 36.8756Z" fill="white"/>
<path d="M59.9918 47.7096L58.1991 46.6746L57.1641 48.4672L58.9568 49.5022L59.9918 47.7096Z" fill="white"/>
<path d="M53.7368 58.5435L51.9441 57.5085L50.9091 59.3012L52.7018 60.3362L53.7368 58.5435Z" fill="white"/>
<path d="M47.4768 69.3862L45.6841 68.3512L44.6491 70.1439L46.4418 71.1789L47.4768 69.3862Z" fill="white"/>
<path d="M41.2218 80.2201L39.4291 79.1852L38.3941 80.9778L40.1868 82.0128L41.2218 80.2201Z" fill="white"/>
<path d="M34.9668 91.0541L33.1741 90.0191L32.1391 91.8118L33.9318 92.8468L34.9668 91.0541Z" fill="white"/>
<path d="M28.7068 101.897L26.9141 100.862L25.8791 102.654L27.6718 103.689L28.7068 101.897Z" fill="white"/>
<path d="M22.4518 112.731L20.6591 111.696L19.6241 113.488L21.4168 114.523L22.4518 112.731Z" fill="white"/>
<path d="M94.8289 10.03L93.0362 8.995L92.0012 10.7877L93.7939 11.8227L94.8289 10.03Z" fill="white"/>
<path d="M88.5738 20.864L86.7812 19.829L85.7462 21.6217L87.5388 22.6567L88.5738 20.864Z" fill="white"/>
<path d="M82.3139 31.7066L80.5212 30.6716L79.4862 32.4643L81.2789 33.4993L82.3139 31.7066Z" fill="white"/>
<path d="M76.0588 42.5406L74.2662 41.5056L73.2312 43.2983L75.0238 44.3333L76.0588 42.5406Z" fill="white"/>
<path d="M69.8039 53.3746L68.0112 52.3396L66.9762 54.1322L68.7689 55.1672L69.8039 53.3746Z" fill="white"/>
<path d="M63.5489 64.2086L61.7562 63.1736L60.7212 64.9662L62.5139 66.0012L63.5489 64.2086Z" fill="white"/>
<path d="M57.2889 75.0512L55.4962 74.0162L54.4612 75.8088L56.2539 76.8438L57.2889 75.0512Z" fill="white"/>
<path d="M51.0339 85.8852L49.2412 84.8502L48.2062 86.6428L49.9988 87.6778L51.0339 85.8852Z" fill="white"/>
<path d="M44.7788 96.7191L42.9862 95.6841L41.9512 97.4768L43.7438 98.5118L44.7788 96.7191Z" fill="white"/>
<path d="M38.5189 107.562L36.7262 106.527L35.6912 108.319L37.4839 109.354L38.5189 107.562Z" fill="white"/>
<path d="M32.2638 118.396L30.4712 117.361L29.4362 119.153L31.2288 120.188L32.2638 118.396Z" fill="white"/>
<path d="M92.1259 37.3716L90.3333 36.3366L89.2983 38.1293L91.0909 39.1643L92.1259 37.3716Z" fill="white"/>
<path d="M85.8709 48.2056L84.0782 47.1706L83.0432 48.9633L84.8359 49.9983L85.8709 48.2056Z" fill="white"/>
<path d="M79.6159 59.0396L77.8232 58.0046L76.7882 59.7972L78.5809 60.8322L79.6159 59.0396Z" fill="white"/>
<path d="M73.3609 69.8736L71.5683 68.8386L70.5333 70.6312L72.3259 71.6662L73.3609 69.8736Z" fill="white"/>
<path d="M67.1009 80.7162L65.3082 79.6812L64.2732 81.4739L66.0659 82.5089L67.1009 80.7162Z" fill="white"/>
<path d="M60.8459 91.5502L59.0533 90.5152L58.0182 92.3078L59.8109 93.3428L60.8459 91.5502Z" fill="white"/>
<path d="M54.5909 102.384L52.7982 101.349L51.7632 103.142L53.5559 104.177L54.5909 102.384Z" fill="white"/>
<path d="M48.3309 113.227L46.5382 112.192L45.5032 113.984L47.2959 115.019L48.3309 113.227Z" fill="white"/>
<path d="M42.0759 124.061L40.2832 123.026L39.2482 124.818L41.0409 125.853L42.0759 124.061Z" fill="white"/>
<path d="M95.683 53.8706L93.8903 52.8356L92.8553 54.6283L94.648 55.6633L95.683 53.8706Z" fill="white"/>
<path d="M89.428 64.7046L87.6353 63.6696L86.6003 65.4622L88.393 66.4972L89.428 64.7046Z" fill="white"/>
<path d="M83.173 75.5385L81.3803 74.5035L80.3453 76.2962L82.138 77.3312L83.173 75.5385Z" fill="white"/>
<path d="M76.913 86.3812L75.1203 85.3462L74.0853 87.1389L75.878 88.1739L76.913 86.3812Z" fill="white"/>
<path d="M70.658 97.2152L68.8653 96.1802L67.8303 97.9729L69.623 99.0079L70.658 97.2152Z" fill="white"/>
<path d="M64.403 108.049L62.6103 107.014L61.5753 108.807L63.368 109.842L64.403 108.049Z" fill="white"/>
<path d="M58.143 118.892L56.3503 117.857L55.3153 119.649L57.108 120.684L58.143 118.892Z" fill="white"/>
<path d="M51.888 129.726L50.0953 128.691L49.0603 130.483L50.853 131.518L51.888 129.726Z" fill="white"/>
<path d="M92.9851 81.2035L91.1924 80.1685L90.1574 81.9612L91.9501 82.9962L92.9851 81.2035Z" fill="white"/>
<path d="M86.7251 92.0462L84.9324 91.0112L83.8974 92.8039L85.6901 93.8389L86.7251 92.0462Z" fill="white"/>
<path d="M80.4701 102.88L78.6774 101.845L77.6424 103.638L79.4351 104.673L80.4701 102.88Z" fill="white"/>
<path d="M74.2151 113.714L72.4224 112.679L71.3874 114.472L73.1801 115.507L74.2151 113.714Z" fill="white"/>
<path d="M67.9551 124.557L66.1624 123.522L65.1274 125.314L66.9201 126.349L67.9551 124.557Z" fill="white"/>
<path d="M61.7001 135.391L59.9074 134.356L58.8724 136.148L60.6651 137.183L61.7001 135.391Z" fill="white"/>
<path d="M96.5371 97.7112L94.7444 96.6762L93.7094 98.4689L95.5021 99.5039L96.5371 97.7112Z" fill="white"/>
<path d="M90.2821 108.545L88.4895 107.51L87.4545 109.303L89.2471 110.338L90.2821 108.545Z" fill="white"/>
<path d="M84.0271 119.379L82.2345 118.344L81.1995 120.137L82.9921 121.172L84.0271 119.379Z" fill="white"/>
<path d="M77.7671 130.222L75.9744 129.187L74.9394 130.979L76.7321 132.014L77.7671 130.222Z" fill="white"/>
<path d="M71.5121 141.056L69.7195 140.021L68.6845 141.813L70.4771 142.848L71.5121 141.056Z" fill="white"/>
<path d="M93.8305 125.039L92.0379 124.004L91.0029 125.797L92.7955 126.832L93.8305 125.039Z" fill="white"/>
<path d="M87.5705 135.882L85.7778 134.847L84.7428 136.639L86.5355 137.674L87.5705 135.882Z" fill="white"/>
<path d="M81.3155 146.716L79.5229 145.681L78.4879 147.473L80.2805 148.508L81.3155 146.716Z" fill="white"/>
<path d="M97.3826 141.547L95.5899 140.512L94.5549 142.304L96.3476 143.339L97.3826 141.547Z" fill="white"/>
<path d="M91.1276 152.381L89.3349 151.346L88.2999 153.138L90.0926 154.173L91.1276 152.381Z" fill="white"/>
</g>
<defs>
<clipPath id="clip0_32_418">
<rect width="115.36" height="127.2" fill="white" transform="translate(63.6 -8) rotate(30)"/>
</clipPath>
</defs>
</svg>
