<svg width="24" height="24" viewBox="0 0 24 24" fill="none" xmlns="http://www.w3.org/2000/svg">
<g clip-path="url(#clip0_57_161)">
<path d="M12 23.9995C18.6271 23.9995 23.9998 18.6264 23.9998 11.9998C23.9998 5.37318 18.6275 0 12 0C5.37247 0 0.000228882 5.37364 0.000228882 11.9998C0.000228882 18.6259 5.37294 23.9995 12 23.9995Z" fill="white"/>
<path fill-rule="evenodd" clip-rule="evenodd" d="M22.2265 5.7341H11.4605V2.60057H19.46C20.5585 3.47511 21.4949 4.53572 22.2265 5.7341ZM23.9998 11.9998H11.467V8.86717H23.5868C23.8618 9.88863 24.0006 10.9419 23.9998 11.9998ZM12 23.9995C14.7129 24.0058 17.3468 23.0864 19.4666 21.3933H4.5339C6.65333 23.0867 9.28718 24.0061 12 23.9995ZM22.2396 18.2668H1.76036C1.16304 17.2927 0.709469 16.2375 0.413666 15.1338H23.5863C23.2906 16.2375 22.837 17.2928 22.2396 18.2668Z" fill="#D80027"/>
<path fill-rule="evenodd" clip-rule="evenodd" d="M5.5712 1.86726H5.56042V1.87476L5.5712 1.86726ZM5.5712 1.86726H6.65633L5.63401 2.60084L6.02072 3.80082L5.00074 3.06724L3.98732 3.80082L4.3206 2.76537C3.42488 3.51505 2.64337 4.39146 2.0008 5.36688H2.35423L1.70737 5.83562L1.41394 6.35123L1.72049 7.30465L1.14066 6.88279L0.740825 7.81371L1.0741 8.859H2.3397L1.33378 9.60008L1.72049 10.8001L0.700513 10.0665L0.100525 10.5062C0.0335709 11.0011 5.8042e-05 11.5001 0.000214166 11.9996H12V-0.000203516C9.72286 -0.00316508 7.49234 0.644769 5.5712 1.86726ZM6.01838 10.794L6.02728 10.801H6.02072L6.01838 10.794ZM5.63354 9.60055L6.01838 10.794L5.00027 10.0674L3.98029 10.801L4.367 9.60102L3.34702 8.86744H4.61262L4.99934 7.66746L5.38605 8.86744H6.65165L5.63354 9.60055ZM5.64057 6.10749L6.02728 7.30747L5.0073 6.57389L3.98732 7.30747L4.37403 6.10749L3.35406 5.37391H4.61966L5.00637 4.17393L5.39308 5.37391H6.65868L5.64057 6.10749ZM9.31363 10.0674L10.3336 10.801L9.94689 9.60102L10.9688 8.86744H9.70315L9.31644 7.66746L8.92973 8.86744H7.66413L8.68411 9.60102L8.2974 10.801L9.31363 10.0674ZM9.94689 6.10749L10.3336 7.30747L9.31363 6.57389L8.29365 7.30747L8.68036 6.10749L7.66038 5.37391H8.92598L9.31269 4.17393L9.6994 5.37391H10.965L9.94689 6.10749ZM10.3336 3.81394L9.94689 2.61396L10.9688 1.88038H9.70315L9.31644 0.680408L8.92973 1.88038H7.66413L8.68411 2.61396L8.2974 3.81394L9.31738 3.08036L10.3336 3.81394Z" fill="#0052B4"/>
</g>
<defs>
<clipPath id="clip0_57_161">
<rect width="24" height="24" fill="white"/>
</clipPath>
</defs>
</svg>
